<?xml version="1.0" encoding="UTF-8" standalone="no"?>
<!--
  Licensed to the Apache Software Foundation (ASF) under one or more
  contributor license agreements.  See the NOTICE file distributed with
  this work for additional information regarding copyright ownership.
  The ASF licenses this file to You under the Apache License, Version 2.0
  (the "License"); you may not use this file except in compliance with
  the License.  You may obtain a copy of the License at

      http://www.apache.org/licenses/LICENSE-2.0

  Unless required by applicable law or agreed to in writing, software
  distributed under the License is distributed on an "AS IS" BASIS,
  WITHOUT WARRANTIES OR CONDITIONS OF ANY KIND, either express or implied.
  See the License for the specific language governing permissions and
  limitations under the License.
-->
<!DOCTYPE svg PUBLIC "-//W3C//DTD SVG 1.1//EN" "http://www.w3.org/Graphics/SVG/1.1/DTD/svg11.dtd">
<svg width="100%" height="100%" viewBox="0 0 400 500" version="1.1" xmlns="http://www.w3.org/2000/svg" xmlns:xlink="http://www.w3.org/1999/xlink" xml:space="preserve" xmlns:serif="http://www.serif.com/" style="fill-rule:evenodd;clip-rule:evenodd;stroke-linejoin:round;stroke-miterlimit:2;">
    <path id="inner" d="M369.259,461.074C372.421,467.275 372.131,474.674 368.493,480.609C364.856,486.544 358.395,490.161 351.434,490.158C281.717,490.133 118.985,490.075 48.865,490.05C41.86,490.048 35.367,486.381 31.748,480.384C28.129,474.386 27.911,466.933 31.174,460.735C66.451,393.714 150,234.984 150,234.984L150,40L255,40L254,235C254,235 335.14,394.151 369.259,461.074Z" style="fill:url(#_Radial1);"/>
    <clipPath id="_clip2">
        <path d="M369.259,461.074C372.421,467.275 372.131,474.674 368.493,480.609C364.856,486.544 358.395,490.161 351.434,490.158C281.717,490.133 118.985,490.075 48.865,490.05C41.86,490.048 35.367,486.381 31.748,480.384C28.129,474.386 27.911,466.933 31.174,460.735C66.451,393.714 150,234.984 150,234.984L150,40L255,40L254,235C254,235 335.14,394.151 369.259,461.074Z"/>
    </clipPath>
    <g clip-path="url(#_clip2)">
        <path d="M170.955,77L194,77L194,245L81,467.049C81,467.049 48.173,471.562 56.009,459C64.639,445.166 171,241 171,241L170.955,77Z" style="fill:white;fill-opacity:0.35;"/>
    </g>
    <path d="M369.259,461.074C372.421,467.275 372.131,474.674 368.493,480.609C364.856,486.544 358.395,490.161 351.434,490.158C281.717,490.133 118.985,490.075 48.865,490.05C41.86,490.048 35.367,486.381 31.748,480.384C28.129,474.386 27.911,466.933 31.174,460.735C66.451,393.714 150,234.984 150,234.984L150,40L255,40L254,235C254,235 335.14,394.151 369.259,461.074ZM244.949,50L160,50L160,234.984C160,236.607 159.605,238.206 158.849,239.642C158.849,239.642 75.3,398.371 40.023,465.392C38.392,468.492 38.501,472.218 40.31,475.217C42.12,478.215 45.366,480.049 48.868,480.05C118.989,480.075 281.721,480.133 351.438,480.158C354.918,480.159 358.149,478.351 359.967,475.384C361.786,472.416 361.931,468.717 360.35,465.616L245.091,239.542C244.366,238.12 243.992,236.545 244,234.949L244.949,50Z" style="fill:white;"/>
    <defs>
        <radialGradient id="_Radial1" cx="0" cy="0" r="1" gradientUnits="userSpaceOnUse" gradientTransform="matrix(229.791,1.35475,-1.98413,336.545,205.755,161.944)"><stop offset="0" style="stop-color:white;stop-opacity:0.2"/><stop offset="0.43" style="stop-color:white;stop-opacity:0.34"/><stop offset="1" style="stop-color:white;stop-opacity:0.65"/></radialGradient>
    </defs>
</svg>
